# xmcd CD database file
#
# Track frame offsets:
#	150
#	16577
#	36085
#	63552
#	83025
#	99142
#	116730
#	134510
#	150030
#	174922
#	196962
#
# Disc length: 2777 seconds
#
# Revision: 1
# Processed by: cddbd v1.5.1PL0 Copyright (c) Steve Scherf et al.
# Submitted via: CDex 1.51
#
DISCID=780ad70b
DTITLE=Huegu and Docdoc - Bura Bura Yan
DYEAR=2000
DGENRE=Blues
TTITLE0=睡著 mabudi
TTITLE1=含苞待放的小姐 bura bura yan Ⅰ
TTITLE2=狩獵出草歌 malikuda
TTITLE3=那天晚上風的聲音 wi ya suni nu vali du ya la vi i
TTITLE4=乘涼的老人 misa sabi ai a mutuasai
TTITLE5=舞在旋律 dancing in the sunshine
TTITLE6=砲灰 sabalikur aradiu
TTITLE7=花生葉 bapah nu kudasin
TTITLE8=老人海邊吟唱 ladiu ni vaki
TTITLE9=阿媽的歌 usakiru nu vai
TTITLE10=含苞待放的小姐 bura bura yan Ⅱ
EXTD=YEAR: 2000
EXTT0=
EXTT1=
EXTT2=
EXTT3=
EXTT4=
EXTT5=
EXTT6=
EXTT7=
EXTT8=
EXTT9=
EXTT10=
PLAYORDER=
